<?xml version="1.0" standalone="no"?>
<!DOCTYPE svg PUBLIC "-//W3C//DTD SVG 20010904//EN"
 "http://www.w3.org/TR/2001/REC-SVG-20010904/DTD/svg10.dtd">
<svg version="1.0" xmlns="http://www.w3.org/2000/svg"
 width="1024.000000pt" height="1024.000000pt" viewBox="0 0 1024.000000 1024.000000"
 preserveAspectRatio="xMidYMid meet">

<g transform="translate(0.000000,1024.000000) scale(0.100000,-0.100000)"
fill="#000000" stroke="none">
<path d="M0 5120 l0 -5120 5120 0 5120 0 0 5120 0 5120 -5120 0 -5120 0 0
-5120z m6700 3500 c286 -8 339 -12 440 -34 383 -82 751 -316 980 -624 187
-251 313 -546 354 -827 14 -95 16 -247 17 -1100 1 -544 1 -1000 0 -1012 -1
-30 -56 -90 -104 -115 -74 -37 -158 -9 -221 76 -21 27 -21 37 -27 1039 -5 998
-5 1013 -27 1109 -124 546 -513 968 -1007 1093 -162 41 -258 47 -740 42 -247
-3 -466 -8 -486 -12 -35 -7 -38 -5 -92 61 -70 85 -92 142 -73 189 16 38 82
114 108 124 21 7 442 3 878 -9z m-2937 -25 c43 -42 46 -63 14 -102 -13 -15
-35 -49 -50 -74 -14 -25 -44 -69 -66 -96 l-39 -50 -179 -6 c-211 -7 -288 -23
-498 -107 -431 -171 -726 -542 -836 -1051 -19 -86 -21 -139 -26 -614 -2 -309
-9 -533 -15 -553 -12 -41 -52 -88 -89 -107 -15 -8 -51 -15 -79 -15 -45 0 -55
4 -96 42 -77 71 -77 72 -82 348 -6 382 12 874 37 987 115 524 353 882 774
1163 153 102 400 200 592 236 133 24 220 31 421 33 l181 1 36 -35z m996 -372
c6 -21 25 -94 42 -163 17 -69 38 -153 47 -187 l16 -62 50 -12 c68 -16 221 -75
266 -101 19 -12 50 -34 69 -49 l34 -28 33 28 c81 72 347 244 368 239 6 -2 77
-71 156 -154 80 -82 164 -168 188 -189 69 -62 69 -65 18 -160 -61 -113 -171
-282 -188 -288 -10 -3 -6 -16 15 -53 50 -87 91 -177 107 -238 l17 -59 69 -17
c98 -25 406 -109 409 -112 2 -2 5 -128 7 -280 l3 -278 -25 -4 c-92 -18 -98
-18 -109 2 -31 59 -207 148 -366 185 -74 17 -122 21 -265 21 -98 0 -191 -5
-211 -11 l-37 -11 -7 77 c-13 140 -86 341 -165 456 -135 197 -347 351 -577
422 -80 24 -103 27 -248 27 -123 0 -175 -4 -224 -17 -365 -102 -631 -367 -731
-728 -28 -104 -29 -332 0 -444 43 -166 132 -327 250 -446 174 -176 353 -264
605 -296 66 -8 126 -17 132 -19 24 -6 2 -31 -47 -54 -120 -56 -301 -290 -355
-457 -9 -29 -20 -55 -25 -58 -23 -14 -409 153 -441 191 -8 10 -20 6 -55 -17
-46 -31 -244 -128 -302 -147 -32 -11 -35 -9 -106 56 -66 61 -158 156 -289 299
-26 29 -47 58 -47 65 0 18 92 158 167 255 l64 82 -40 78 c-40 80 -131 321
-131 348 0 9 -9 15 -21 15 -20 0 -116 27 -309 88 l-85 27 -7 285 c-4 156 -5
286 -3 288 9 9 361 109 405 116 l46 7 17 67 c10 37 23 76 30 88 6 12 27 50 46
85 18 35 42 74 54 87 19 20 19 23 4 35 -30 23 -227 355 -227 382 0 7 44 54 98
106 53 51 144 140 201 196 57 57 109 103 116 103 15 0 284 -179 346 -231 41
-34 49 -37 60 -23 38 46 279 159 364 171 39 5 46 10 51 32 6 30 91 341 106
389 l10 32 273 0 274 0 10 -37z m2577 -426 c82 -57 106 -95 113 -181 4 -40 4
-82 1 -93 -3 -11 -28 -46 -56 -77 -61 -67 -101 -85 -196 -86 -66 0 -66 0 -131
55 -89 76 -97 90 -97 176 0 83 15 120 68 172 57 55 87 67 173 67 71 0 81 -3
125 -33z m-490 -396 c95 -70 124 -124 124 -234 0 -66 -3 -78 -30 -115 -16 -23
-49 -54 -72 -69 -38 -25 -50 -28 -132 -28 l-91 0 -67 70 -68 70 0 98 0 98 48
51 c60 64 109 87 188 88 52 0 67 -4 100 -29z m-955 -1317 c320 -60 645 -289
779 -546 l34 -66 126 6 c114 4 136 2 231 -22 180 -46 272 -100 406 -234 137
-139 242 -314 283 -477 76 -297 35 -597 -112 -823 -58 -88 -182 -214 -262
-267 -149 -97 -350 -160 -561 -176 -76 -6 -458 -9 -915 -7 -780 3 -786 4 -884
27 -188 44 -363 134 -494 256 -98 92 -158 173 -212 287 -82 176 -111 370 -80
538 25 140 139 327 265 437 75 64 167 120 214 128 l38 6 7 64 c16 160 86 350
171 470 63 88 222 237 300 280 199 112 460 158 666 119z m-3916 -689 c23 -13
55 -41 71 -62 l29 -38 6 -1010 c6 -1109 3 -1048 69 -1246 105 -314 284 -551
549 -726 107 -71 199 -113 328 -152 230 -68 161 -64 1137 -70 l888 -6 35 -40
c46 -52 93 -134 93 -162 0 -30 -43 -78 -99 -111 l-46 -27 -853 -3 -853 -2
-147 24 c-326 56 -548 145 -769 312 -337 255 -543 585 -654 1049 l-34 140 0
1005 0 1005 35 49 c69 95 136 118 215 71z m6394 -929 c33 -18 109 -98 120
-129 4 -12 9 -257 10 -544 l2 -523 -26 -135 c-66 -347 -237 -666 -495 -924
-114 -114 -306 -248 -445 -311 -75 -34 -247 -91 -385 -127 l-105 -27 -590 -4
-590 -3 -46 31 c-73 48 -97 77 -104 125 -5 31 -2 52 11 76 24 48 64 98 86 110
13 7 194 10 526 10 309 -1 540 3 592 9 270 34 536 145 715 298 187 160 375
448 439 675 55 190 58 230 55 767 -2 557 -7 523 75 598 38 35 52 42 86 42 23
0 53 -6 69 -14z m-5065 -112 c3 -26 6 -72 6 -103 l0 -56 70 -33 c39 -18 74
-30 79 -28 5 3 26 28 47 56 21 27 45 50 54 50 8 0 47 -32 85 -70 l70 -70 -20
-36 c-11 -21 -34 -48 -51 -62 l-32 -25 19 -43 c10 -24 21 -59 25 -78 l6 -35
97 -3 96 -3 0 -140 0 -140 -96 -3 -97 -3 -12 -47 c-6 -26 -18 -57 -26 -70 -17
-25 -15 -29 37 -92 20 -25 40 -54 43 -66 8 -28 -46 -108 -95 -141 -45 -29 -53
-26 -123 46 l-49 50 -32 -25 c-17 -13 -46 -27 -63 -30 l-32 -6 0 -109 c0 -144
5 -140 -163 -132 -78 3 -135 11 -139 17 -4 6 -8 62 -8 124 0 102 -2 112 -18
112 -10 0 -40 11 -67 24 l-47 25 -55 -60 c-30 -32 -62 -59 -70 -59 -24 0 -102
61 -133 104 -29 38 -29 40 -12 69 9 16 36 49 59 74 l42 46 -25 48 c-13 27 -24
57 -24 69 0 19 -6 20 -89 20 -49 0 -96 3 -105 6 -14 5 -16 28 -16 150 0 166
-14 149 121 145 l77 -3 7 38 c3 22 15 55 25 74 l18 34 -54 60 c-30 33 -54 63
-54 67 0 17 138 149 156 149 10 0 44 -27 75 -60 l57 -61 38 26 c21 14 47 28
60 31 20 5 22 13 29 115 l7 109 147 0 148 0 7 -46z m1035 -929 c97 -60 194
-155 222 -217 32 -75 40 -245 13 -281 -105 -136 -135 -165 -180 -181 -26 -9
-56 -16 -66 -16 -14 0 -18 -8 -18 -34 0 -19 -9 -44 -19 -57 -17 -21 -29 -24
-109 -27 -83 -4 -91 -2 -111 19 -11 12 -21 35 -21 50 0 24 -8 31 -70 60 -131
60 -190 151 -198 306 -5 89 -3 96 27 157 39 81 90 132 180 186 40 24 76 52 82
62 10 18 19 19 107 16 92 -4 100 -6 161 -43z"/>
<path d="M7185 7671 c-40 -17 -58 -47 -51 -86 12 -64 82 -83 144 -39 34 24 30
76 -9 108 -32 27 -50 31 -84 17z"/>
<path d="M6694 7247 c-34 -30 -35 -79 -3 -113 47 -50 129 -14 129 55 0 72 -71
105 -126 58z"/>
<path d="M5575 5845 c-158 -29 -271 -89 -385 -204 -139 -141 -205 -301 -217
-522 l-6 -116 -61 -11 c-129 -24 -261 -118 -356 -254 -74 -106 -95 -177 -94
-323 0 -102 5 -132 27 -200 35 -105 87 -190 167 -271 95 -97 197 -160 335
-208 59 -20 82 -20 965 -24 1005 -3 980 -4 1147 63 142 57 256 153 345 292 67
103 73 117 98 226 59 258 -21 567 -193 742 -125 127 -238 186 -402 211 -126
19 -169 18 -280 -11 -54 -14 -99 -24 -101 -22 -2 2 -19 44 -38 95 -43 115
-125 240 -214 323 -84 79 -296 191 -407 214 -85 18 -235 18 -330 0z m615 -910
c25 -25 82 -76 128 -112 45 -36 82 -69 82 -73 0 -14 -38 -55 -67 -72 -28 -16
-31 -16 -76 10 -25 15 -67 47 -92 71 -44 41 -48 43 -72 30 -26 -14 -92 -88
-111 -125 -36 -68 -32 -173 6 -193 29 -14 234 -21 458 -14 l213 6 -50 56 c-37
42 -49 63 -49 88 0 43 19 83 41 83 9 0 68 -44 131 -99 62 -54 142 -123 178
-153 36 -30 66 -63 68 -75 2 -15 -12 -32 -57 -64 -32 -24 -114 -90 -181 -147
-157 -132 -204 -159 -267 -153 -6 1 -21 17 -33 36 l-21 35 28 52 c15 28 56 80
89 115 l62 63 -107 0 c-59 0 -145 -5 -191 -11 -150 -18 -318 -17 -372 4 -64
25 -113 84 -138 165 -21 67 -27 180 -11 210 6 9 24 46 41 81 17 35 61 98 98
140 38 42 83 98 101 124 l32 48 47 -40 c26 -22 67 -60 92 -86z"/>
<path d="M3082 3925 c-165 -51 -247 -243 -168 -393 39 -75 144 -135 236 -136
74 0 169 43 216 98 118 138 59 362 -113 426 -62 23 -109 24 -171 5z"/>
<path d="M4105 3228 c-32 -17 -76 -61 -91 -90 -8 -15 -14 -54 -14 -87 0 -53 4
-65 30 -95 39 -44 87 -66 144 -66 54 0 131 33 152 65 56 86 32 204 -55 262
-38 25 -129 32 -166 11z"/>
</g>
</svg>
